<svg xmlns="http://www.w3.org/2000/svg" viewBox="0 0 235.14 68.66"><defs><style>.cls-1{fill:#4c1f60;stroke:#4c1f60;stroke-miterlimit:10;stroke-width:5px;}</style></defs><title>Asset 3</title><g id="Layer_2" data-name="Layer 2"><g id="Layer_1-2" data-name="Layer 1"><path class="cls-1" d="M37.82,27.94c-.18,2.46-.3,5.29-.3,9.53V57.69c0,8.06-1.64,12.89-5,16s-8.29,4.17-12.68,4.17c-4.22,0-8.8-1-11.63-2.86l1.59-4.87a19.6,19.6,0,0,0,10.25,2.78c6.46,0,11.21-3.38,11.21-12.2V56.78h-.14c-1.9,3.27-5.7,5.87-11.07,5.87-8.68,0-14.84-7.39-14.84-17C5.24,33.8,12.92,27.15,21,27.15c6,0,9.31,3.11,10.86,6H32l.26-5.22Zm-6.59,13.7a9.67,9.67,0,0,0-.35-2.83A9.16,9.16,0,0,0,22,32.07c-6,0-10.37,5.11-10.37,13.2,0,6.81,3.52,12.54,10.31,12.54a9.27,9.27,0,0,0,8.81-6.53,11.12,11.12,0,0,0,.5-3.36Z" transform="translate(-2.74 -11.66)"/><path class="cls-1" d="M79.54,45c0,12.89-9,18.54-17.32,18.54-9.45,0-16.74-6.89-16.74-17.94,0-11.66,7.66-18.47,17.29-18.47C72.78,27.15,79.54,34.41,79.54,45Zm-27.62.4c0,7.64,4.38,13.39,10.56,13.39s10.61-5.67,10.61-13.58c0-5.89-3-13.34-10.5-13.34S51.92,38.82,51.92,45.42Z" transform="translate(-2.74 -11.66)"/><path class="cls-1" d="M86.65,56.32A17.25,17.25,0,0,0,95,58.8c4.62,0,6.77-2.28,6.77-5.19S100,49,95.34,47.24C89,45,86.06,41.53,86.08,37.36c0-5.61,4.56-10.21,12-10.21a16.91,16.91,0,0,1,8.53,2.14l-1.58,4.61a13.69,13.69,0,0,0-7.14-2c-3.74,0-5.77,2.15-5.77,4.78,0,2.88,2,4.16,6.61,5.93,6,2.24,9.12,5.27,9.14,10.47,0,6.17-4.8,10.49-13,10.49a19.85,19.85,0,0,1-9.79-2.43Z" transform="translate(-2.74 -11.66)"/><path class="cls-1" d="M115.16,56.32a17.28,17.28,0,0,0,8.39,2.48c4.63,0,6.77-2.28,6.77-5.19s-1.84-4.64-6.47-6.37c-6.29-2.28-9.27-5.71-9.26-9.88,0-5.61,4.56-10.21,12-10.21a16.91,16.91,0,0,1,8.53,2.14L133.6,33.9a13.73,13.73,0,0,0-7.15-2c-3.74,0-5.77,2.15-5.77,4.78,0,2.88,2,4.16,6.62,5.93,6,2.24,9.12,5.27,9.13,10.47,0,6.17-4.79,10.49-13,10.49a19.88,19.88,0,0,1-9.79-2.43Z" transform="translate(-2.74 -11.66)"/><path class="cls-1" d="M151.64,18.1a3.93,3.93,0,1,1-7.85,0,3.85,3.85,0,0,1,3.94-3.94A3.78,3.78,0,0,1,151.64,18.1Zm-7.07,44.66V27.94h6.3V62.76Z" transform="translate(-2.74 -11.66)"/><path class="cls-1" d="M161.4,39.29c0-4.44-.12-8.06-.29-11.35h5.66l.35,5.94h.14c2.54-4.25,6.71-6.73,12.37-6.73,8.43,0,14.78,7.1,14.78,17.67,0,12.55-7.68,18.74-15.84,18.74-4.65,0-8.65-2-10.73-5.49h-.14V77h-6.3Zm6.3,9.3a12,12,0,0,0,.27,2.58,9.75,9.75,0,0,0,9.47,7.43c6.71,0,10.59-5.51,10.59-13.49,0-7-3.64-12.93-10.35-12.93A10.07,10.07,0,0,0,168.1,40a11.27,11.27,0,0,0-.4,2.57Z" transform="translate(-2.74 -11.66)"/><path class="cls-1" d="M202.37,39.29c0-4.44-.12-8.06-.29-11.35h5.66l.35,5.94h.14c2.53-4.25,6.7-6.73,12.36-6.73,8.43,0,14.79,7.1,14.79,17.67,0,12.55-7.68,18.74-15.84,18.74-4.66,0-8.66-2-10.73-5.49h-.15V77h-6.29Zm6.29,9.3a11.4,11.4,0,0,0,.28,2.58,9.74,9.74,0,0,0,9.47,7.43c6.71,0,10.58-5.51,10.58-13.49,0-7-3.64-12.93-10.34-12.93A10.07,10.07,0,0,0,209.07,40a10.76,10.76,0,0,0-.41,2.57Z" transform="translate(-2.74 -11.66)"/></g></g></svg>